<?xml version="1.0" encoding="utf-8"?>
<!-- Generator: Adobe Illustrator 16.0.0, SVG Export Plug-In . SVG Version: 6.00 Build 0)  -->
<!DOCTYPE svg PUBLIC "-//W3C//DTD SVG 1.1//EN" "http://www.w3.org/Graphics/SVG/1.1/DTD/svg11.dtd">
<svg version="1.1" id="Layer_1" xmlns="http://www.w3.org/2000/svg" xmlns:xlink="http://www.w3.org/1999/xlink" x="0px" y="0px"
	 width="137.834px" height="69.333px" viewBox="0 0 137.834 69.333" enable-background="new 0 0 137.834 69.333"
	 xml:space="preserve">
<path fill="#333333" stroke="#333333" stroke-linecap="round" stroke-linejoin="round" stroke-miterlimit="10" d="M33.893,8.342
	V25.48c0,0.719-0.572,1.29-1.293,1.29c-0.717,0-1.318-0.571-1.318-1.29V9.174L24.65,25.568c-0.316,0.717-1.006,1.202-1.84,1.202
	c-0.83,0-1.52-0.485-1.836-1.202L14.344,9.174V25.48c0,0.719-0.604,1.29-1.32,1.29c-0.719,0-1.291-0.571-1.291-1.29V8.342
	c0-1.033,0.83-1.896,1.863-1.896h0.949c0.773,0,1.463,0.517,1.75,1.207L22.811,23.9l6.52-16.247c0.287-0.69,0.977-1.207,1.752-1.207
	h0.945C33.061,6.446,33.893,7.309,33.893,8.342z"/>
<path fill="#333333" stroke="#333333" stroke-linecap="round" stroke-linejoin="round" stroke-miterlimit="10" d="M49.58,17.355
	v8.125c0,0.719-0.602,1.29-1.32,1.29c-0.717,0-1.291-0.571-1.291-1.29v-0.747c-1.033,1.062-2.697,2.183-5.396,2.183
	c-2.496,0-4.68-1.607-4.68-4.305c0-2.701,2.125-4.652,6.604-4.652h3.475V17.73c0-2.556-1.264-3.561-3.848-3.561
	c-1.607,0-2.756,0.344-3.816,0.688c-0.115,0.028-0.26,0.056-0.375,0.056c-0.574,0-1.062-0.457-1.062-1.088
	c0-0.489,0.26-0.892,0.746-1.092c1.352-0.576,2.93-1.033,4.967-1.033C47.773,11.701,49.58,14.543,49.58,17.355z M46.969,22.465
	v-2.41H43.84c-2.697,0-4.334,0.631-4.334,2.269c0,1.232,0.717,2.297,3.041,2.297C44.328,24.619,45.994,23.583,46.969,22.465z"/>
<path fill="#333333" stroke="#333333" stroke-linecap="round" stroke-linejoin="round" stroke-miterlimit="10" d="M65.408,24.531
	c0,0.434-0.23,0.776-0.574,1.006c-0.977,0.635-2.412,1.379-4.68,1.379c-4.076,0-7.664-2.812-7.664-7.606
	c0-4.795,3.588-7.606,7.664-7.606c2.268,0,3.703,0.744,4.68,1.377c0.344,0.23,0.574,0.574,0.574,1.005
	c0,0.544-0.49,1.146-1.092,1.146c-0.23,0-0.373-0.027-0.633-0.171c-1.004-0.517-1.807-0.919-3.301-0.919
	c-3.33,0-5.281,2.095-5.281,5.167c0,3.071,1.951,5.166,5.281,5.166c1.494,0,2.297-0.399,3.301-0.918
	c0.26-0.146,0.402-0.173,0.633-0.173C64.918,23.383,65.408,23.99,65.408,24.531z"/>
<path fill="#333333" stroke="#333333" stroke-linecap="round" stroke-linejoin="round" stroke-miterlimit="10" d="M71.243,7.537
	c0,0.805-0.66,1.464-1.463,1.464c-0.029,0-0.059,0-0.172,0c-0.805,0-1.467-0.659-1.467-1.464c0-0.027,0-0.027,0-0.113
	c0-0.805,0.663-1.465,1.467-1.465c0.057,0,0.113,0,0.172,0c0.803,0,1.463,0.66,1.463,1.465C71.243,7.451,71.243,7.51,71.243,7.537z
	 M70.985,13.164v12.315c0,0.72-0.574,1.29-1.32,1.29c-0.717,0-1.292-0.57-1.292-1.29V13.164c0-0.746,0.575-1.321,1.292-1.321
	C70.411,11.843,70.985,12.418,70.985,13.164z"/>
<path fill="#333333" stroke="#333333" stroke-linecap="round" stroke-linejoin="round" stroke-miterlimit="10" d="M77.909,6.848
	V25.48c0,0.719-0.574,1.29-1.322,1.29c-0.717,0-1.291-0.571-1.291-1.29V6.848c0-0.745,0.574-1.32,1.291-1.32
	C77.334,5.528,77.909,6.103,77.909,6.848z"/>
<path fill="#333333" stroke="#333333" stroke-linecap="round" stroke-linejoin="round" stroke-miterlimit="10" d="M95.91,19.308
	c0,4.535-2.928,7.607-7.349,7.607c-4.447,0-7.348-3.072-7.348-7.607c0-4.536,2.9-7.606,7.348-7.606
	C92.982,11.701,95.91,14.772,95.91,19.308z M93.299,19.279c0-3.789-2.554-5.195-4.736-5.195c-2.209,0-4.736,1.406-4.736,5.195
	c0,3.817,2.525,5.252,4.736,5.252C90.745,24.531,93.299,23.096,93.299,19.279z"/>
<path fill="#333333" stroke="#333333" stroke-linecap="round" stroke-linejoin="round" stroke-miterlimit="10" d="M110.992,13.164
	c0,0.229-0.059,0.401-0.143,0.603l-4.996,11.943c-0.258,0.574-0.861,1.06-1.578,1.06h-0.289c-0.717,0-1.32-0.485-1.578-1.06
	l-4.996-11.943c-0.084-0.201-0.143-0.374-0.143-0.603c0-0.719,0.574-1.321,1.291-1.321c0.518,0,1.006,0.315,1.178,0.746
	l4.393,11.141l4.395-11.141c0.172-0.431,0.658-0.746,1.176-0.746C110.418,11.843,110.992,12.446,110.992,13.164z"/>
<path fill="#333333" stroke="#333333" stroke-linecap="round" stroke-linejoin="round" stroke-miterlimit="10" d="M125.584,24.59
	c0,0.461-0.344,0.833-0.746,1.062c-1.264,0.719-2.525,1.264-5.021,1.264c-4.682,0-7.438-2.781-7.438-7.606
	c0-3.876,2.096-7.606,6.861-7.606c4.42,0,6.832,3.414,6.832,7.233c0,0.72-0.518,1.291-1.32,1.291h-9.73
	c0.285,2.586,1.924,4.248,5.021,4.248c1.723,0,2.814-0.341,3.877-0.89c0.172-0.086,0.314-0.113,0.518-0.113
	C125.039,23.471,125.584,23.931,125.584,24.59z M115.02,18.101h8.469c-0.172-2.985-2.412-4.19-4.248-4.19
	C117.402,13.91,115.191,15.116,115.02,18.101z"/>
<path fill="#EAEAEA" stroke="#EAEAEA" stroke-miterlimit="10" d="M33.921,43.231v17.138c0,0.719-0.574,1.29-1.293,1.29
	s-1.32-0.571-1.32-1.29V44.063l-6.631,16.394c-0.316,0.717-1.004,1.202-1.838,1.202c-0.832,0-1.521-0.485-1.836-1.202l-6.633-16.394
	v16.306c0,0.719-0.604,1.29-1.32,1.29c-0.719,0-1.291-0.571-1.291-1.29V43.231c0-1.033,0.832-1.896,1.863-1.896h0.949
	c0.773,0,1.463,0.517,1.75,1.207l6.518,16.246l6.518-16.246c0.287-0.69,0.977-1.207,1.752-1.207h0.945
	C33.089,41.336,33.921,42.198,33.921,43.231z"/>
<path fill="#EAEAEA" stroke="#EAEAEA" stroke-miterlimit="10" d="M49.609,52.244v8.125c0,0.719-0.602,1.29-1.32,1.29
	c-0.717,0-1.291-0.571-1.291-1.29v-0.747c-1.033,1.062-2.699,2.183-5.396,2.183c-2.498,0-4.68-1.607-4.68-4.305
	c0-2.701,2.125-4.652,6.604-4.652h3.473v-0.229c0-2.556-1.264-3.561-3.848-3.561c-1.607,0-2.756,0.344-3.816,0.688
	c-0.115,0.028-0.26,0.056-0.375,0.056c-0.572,0-1.061-0.457-1.061-1.088c0-0.488,0.258-0.892,0.746-1.092
	c1.35-0.576,2.928-1.033,4.965-1.033C47.8,46.59,49.609,49.433,49.609,52.244z M46.998,57.354v-2.41h-3.131
	c-2.695,0-4.332,0.631-4.332,2.269c0,1.232,0.717,2.297,3.041,2.297C44.357,59.508,46.021,58.473,46.998,57.354z"/>
<path fill="#EAEAEA" stroke="#EAEAEA" stroke-miterlimit="10" d="M65.435,59.42c0,0.434-0.229,0.776-0.572,1.006
	c-0.977,0.635-2.412,1.379-4.68,1.379c-4.078,0-7.666-2.812-7.666-7.606c0-4.795,3.588-7.606,7.666-7.606
	c2.268,0,3.703,0.744,4.68,1.377c0.344,0.23,0.572,0.574,0.572,1.006c0,0.544-0.488,1.146-1.09,1.146
	c-0.23,0-0.373-0.027-0.633-0.171c-1.004-0.517-1.809-0.919-3.301-0.919c-3.332,0-5.281,2.096-5.281,5.167s1.951,5.166,5.281,5.166
	c1.492,0,2.297-0.399,3.301-0.918c0.26-0.146,0.4-0.173,0.633-0.173C64.947,58.272,65.435,58.879,65.435,59.42z"/>
<path fill="#EAEAEA" stroke="#EAEAEA" stroke-miterlimit="10" d="M71.271,42.426c0,0.806-0.66,1.465-1.462,1.465
	c-0.029,0-0.061,0-0.172,0c-0.807,0-1.467-0.659-1.467-1.465c0-0.026,0-0.026,0-0.112c0-0.806,0.66-1.466,1.467-1.466
	c0.057,0,0.111,0,0.172,0c0.802,0,1.462,0.66,1.462,1.466C71.271,42.34,71.271,42.399,71.271,42.426z M71.013,48.053v12.315
	c0,0.72-0.574,1.29-1.32,1.29c-0.719,0-1.292-0.57-1.292-1.29V48.053c0-0.745,0.572-1.32,1.292-1.32
	C70.439,46.732,71.013,47.308,71.013,48.053z"/>
<path fill="#EAEAEA" stroke="#EAEAEA" stroke-miterlimit="10" d="M77.937,41.737v18.632c0,0.719-0.574,1.29-1.322,1.29
	c-0.717,0-1.291-0.571-1.291-1.29V41.737c0-0.745,0.574-1.319,1.291-1.319C77.363,40.418,77.937,40.992,77.937,41.737z"/>
<path fill="#EAEAEA" stroke="#EAEAEA" stroke-miterlimit="10" d="M95.939,54.197c0,4.535-2.928,7.607-7.35,7.607
	c-4.447,0-7.35-3.072-7.35-7.607c0-4.536,2.9-7.605,7.35-7.605C93.012,46.59,95.939,49.661,95.939,54.197z M93.328,54.168
	c0-3.789-2.555-5.195-4.739-5.195c-2.209,0-4.736,1.406-4.736,5.195c0,3.817,2.527,5.252,4.736,5.252
	C90.773,59.42,93.328,57.985,93.328,54.168z"/>
<path fill="#EAEAEA" stroke="#EAEAEA" stroke-miterlimit="10" d="M111.021,48.053c0,0.229-0.059,0.401-0.143,0.604L105.883,60.6
	c-0.26,0.574-0.861,1.06-1.578,1.06h-0.289c-0.717,0-1.32-0.485-1.578-1.06l-4.996-11.943c-0.084-0.201-0.143-0.374-0.143-0.604
	c0-0.719,0.574-1.32,1.291-1.32c0.518,0,1.006,0.314,1.178,0.746l4.393,11.141l4.393-11.141c0.172-0.432,0.66-0.746,1.176-0.746
	C110.447,46.732,111.021,47.336,111.021,48.053z"/>
<path fill="#EAEAEA" stroke="#EAEAEA" stroke-miterlimit="10" d="M125.613,59.479c0,0.461-0.344,0.833-0.746,1.062
	c-1.264,0.719-2.527,1.264-5.023,1.264c-4.68,0-7.436-2.781-7.436-7.606c0-3.876,2.096-7.606,6.861-7.606
	c4.42,0,6.832,3.414,6.832,7.233c0,0.72-0.518,1.291-1.32,1.291h-9.732c0.287,2.586,1.924,4.248,5.023,4.248
	c1.723,0,2.814-0.341,3.877-0.89c0.172-0.086,0.314-0.113,0.516-0.113C125.068,58.36,125.613,58.82,125.613,59.479z M115.049,52.99
	h8.469c-0.172-2.984-2.412-4.189-4.248-4.189C117.432,48.799,115.221,50.006,115.049,52.99z"/>
</svg>
